<svg width="40" height="47" viewBox="0 0 40 47" fill="none" xmlns="http://www.w3.org/2000/svg">
<path d="M30.8389 8.39282H38.0952V15.1071H30.8389V8.39282ZM30.8389 18.4643H38.0952V25.1785H30.8389V18.4643ZM19.9546 8.39282H27.2108V15.1071H19.9546V8.39282ZM19.9546 18.4643H27.2108V25.1785H19.9546V18.4643Z" fill="#7B4AE2"/>
<path d="M15.4193 40.2857C16.9221 40.2857 18.1404 39.1584 18.1404 37.7679C18.1404 36.3773 16.9221 35.25 15.4193 35.25C13.9165 35.25 12.6982 36.3773 12.6982 37.7679C12.6982 39.1584 13.9165 40.2857 15.4193 40.2857Z" fill="#7B4AE2"/>
<path d="M27.2109 47H3.62812C2.66618 46.9991 1.74391 46.6451 1.06371 46.0157C0.383516 45.3863 0.000960502 44.533 0 43.6429V3.35714C0.000960502 2.46705 0.383516 1.61366 1.06371 0.984266C1.74391 0.354872 2.66618 0.000888764 3.62812 0H27.2109V3.35714H3.62812V43.6429H27.2109V30.2143H30.839V43.6429C30.838 44.533 30.4555 45.3863 29.7753 46.0157C29.0951 46.6451 28.1728 46.9991 27.2109 47Z" fill="#7B4AE2"/>
<ellipse cx="28.0952" cy="16.5" rx="11.9048" ry="12.5" fill="#7B4AE2" fill-opacity="0.2"/>
</svg>
