<svg width="35" height="35" viewBox="0 0 35 35" fill="none" xmlns="http://www.w3.org/2000/svg">
<path d="M3.1853 31.5013L0 0H35L31.8105 31.4963L17.4787 35L3.1853 31.5013Z" fill="#7B4AE2" fill-opacity="0.5"/>
<path d="M17.5 32.3225L29.0816 29.4913L31.8062 2.57626H17.5V32.3225Z" fill="#7B4AE2"/>
<path d="M17.4999 14.2588H11.702L11.3023 10.3025H17.4999V6.43875H6.51367L6.61857 7.47625L7.69451 18.1225H17.4999V14.2588ZM17.4999 24.2925L17.4801 24.2975L12.6008 23.1363L12.2889 20.055H7.89014L8.50395 26.12L17.4801 28.3175L17.4999 28.3125V24.2925Z" fill="#090E16"/>
<path d="M17.4844 14.2588V18.1225H22.8797L22.3722 23.1338L17.4844 24.2963V28.3162L26.4676 26.12L26.5328 25.4675L27.5619 15.2963L27.6697 14.2588H17.4844ZM17.4844 6.43875V10.3025H28.068L28.1559 9.435L28.3558 7.47625L28.4607 6.43875H17.4844Z" fill="#090E16" fill-opacity="0.7"/>
</svg>
